<svg width="189" height="189" xmlns="http://www.w3.org/2000/svg" xmlns:xlink="http://www.w3.org/1999/xlink" xml:space="preserve" overflow="hidden"><g transform="translate(-300 -111)"><path d="M352.353 205.447C352.362 203.78 352.47 202.116 352.676 200.462L326.039 200.462 326.039 210.306 352.656 210.306C352.461 208.693 352.36 207.071 352.353 205.447Z" fill="#F6F8F8"/><path d="M394.512 163.288C396.157 163.296 397.801 163.4 399.434 163.601L399.434 136.911 389.59 136.911 389.59 163.601C391.223 163.4 392.867 163.296 394.512 163.288Z" fill="#F6F8F8"/><path d="M427.536 179.316 446.41 160.443 439.451 153.486 420.566 172.368C423.151 174.406 425.49 176.738 427.536 179.316Z" fill="#F6F8F8"/><path d="M368.457 172.368 349.575 153.486 342.616 160.445 361.488 179.316C363.534 176.738 365.873 174.406 368.457 172.368Z" fill="#F6F8F8"/><path d="M420.639 238.473 439.451 257.278 446.41 250.317 427.591 231.497C425.552 234.084 423.219 236.425 420.639 238.473Z" fill="#F6F8F8"/><path d="M436.348 200.462C436.772 203.729 436.778 207.037 436.367 210.306L462.985 210.306 462.985 200.462Z" fill="#F6F8F8"/><path d="M394.512 247.608C392.867 247.599 391.223 247.495 389.59 247.295L389.59 273.857 399.434 273.857 399.434 247.295C397.801 247.494 396.157 247.599 394.512 247.608Z" fill="#F6F8F8"/><path d="M361.425 231.503 342.608 250.321 349.575 257.278 368.383 238.471C365.802 236.425 363.467 234.087 361.425 231.503Z" fill="#F6F8F8"/><path d="M428.796 205.447C428.796 224.381 413.446 239.731 394.512 239.731 375.577 239.731 360.228 224.381 360.228 205.447 360.228 186.512 375.577 171.163 394.512 171.163 413.446 171.163 428.796 186.512 428.796 205.447Z" fill="#F6F8F8"/></g></svg>